<?xml version="1.0" encoding="UTF-8" standalone="no"?>
<!-- Created with Inkscape (http://www.inkscape.org/) -->

<svg
   xmlns:dc="http://purl.org/dc/elements/1.1/"
   xmlns:cc="http://creativecommons.org/ns#"
   xmlns:rdf="http://www.w3.org/1999/02/22-rdf-syntax-ns#"
   xmlns:svg="http://www.w3.org/2000/svg"
   xmlns="http://www.w3.org/2000/svg"
   version="1.1"
   width="1048.8188"
   height="131.10236"
   id="svg3006">
  <defs
     id="defs3008" />
  <metadata
     id="metadata3012">
    <rdf:RDF>
      <cc:Work
         rdf:about="">
        <dc:format>image/svg+xml</dc:format>
        <dc:type
           rdf:resource="http://purl.org/dc/dcmitype/StillImage" />
        <dc:title></dc:title>
      </cc:Work>
    </rdf:RDF>
  </metadata>
  <g
     transform="translate(0,-612.9921)"
     id="layer1">
    <path
       d="m 7.4465986,628.3657 0,107.26194 c 0,0 73.4340724,-0.80295 111.7275614,-0.0179 29.31999,0.60106 51.85903,-37.44892 0,-53.61311 l -111.7275614,-2e-5 111.7275614,2e-5 c 32.88988,-22.36741 5.67798,-49.78868 0,-51.43883 C 83.025686,620.05214 7.4465986,628.36558 7.4465986,628.36558 z"
       id="path3038"
       style="fill:none;stroke:#2b0000;stroke-width:13.60357475;stroke-linecap:square;stroke-linejoin:miter;stroke-miterlimit:4;stroke-opacity:1;stroke-dasharray:none;marker-start:none" />
    <path
       d="m 179.09108,735.72225 c 1.08098,-35.30329 0.14837,-72.12089 10.53811,-92.4767 10.79072,-21.14139 34.12702,-21.72425 54.12531,-21.09162 18.87058,0.59696 45.31741,-0.95685 55.46014,18.91505 10.38976,20.35582 9.05491,59.59582 9.50349,94.65327"
       id="path3040"
       style="fill:none;stroke:#2b0000;stroke-width:13.60357475;stroke-linecap:square;stroke-linejoin:miter;stroke-miterlimit:4;stroke-opacity:1;stroke-dasharray:none;marker-start:none" />
    <path
       d="m 181.68684,700.35185 124.06461,0.004"
       id="path3046"
       style="fill:none;stroke:#2b0000;stroke-width:13.60357475;stroke-linecap:square;stroke-linejoin:miter;stroke-miterlimit:4;stroke-opacity:1;stroke-dasharray:none;marker-start:none" />
    <path
       d="m 722.75216,738.41866 c -23.82408,-0.33912 -25.34442,-34.73955 -24.67686,-62.49845 0.72565,-30.17448 5.80125,-52.60482 24.67686,-53.57009 44.22626,-2.26168 66.29331,-2.26168 98.7074,0 23.64846,1.65006 24.35849,24.67829 24.67686,53.57009 0.32107,29.14139 0.80588,62.03712 -24.67686,62.49845 -43.4476,0.78654 -43.4476,0.78654 -98.7074,0 z"
       id="path3118"
       style="fill:none;stroke:#2b0000;stroke-width:13.60357475;stroke-linecap:square;stroke-linejoin:miter;stroke-miterlimit:4;stroke-opacity:1;stroke-dasharray:none;marker-start:none" />
    <path
       d="m 878.18989,736.26944 c 0,-108.8286 0,-114.27003 6.06594,-113.73437 12.52997,1.1065 22.22949,15.78863 34.22183,31.85941 13.29442,17.81568 30.45082,40.52009 41.33368,51.40295 12.07827,16.15409 42.07636,38.2022 42.07636,27.30002 0,-22.47541 0,-111.19829 0,-111.19829"
       id="path3120"
       style="fill:none;stroke:#2b0000;stroke-width:13.60357475;stroke-linecap:square;stroke-linejoin:miter;stroke-miterlimit:4;stroke-opacity:1;stroke-dasharray:none;marker-start:none" />
    <path
       d="m 1043.1982,619.64693 0,114.27742"
       id="path3122"
       style="fill:none;stroke:#2b0000;stroke-width:13.60357475;stroke-linecap:square;stroke-linejoin:miter;stroke-miterlimit:4;stroke-opacity:1;stroke-dasharray:none;marker-start:none" />
    <path
       d="m 665.97411,736.26944 c 0,-27.20714 1.36752,-44.36502 -10.88286,-53.32601 -5.22102,-3.81911 -18.15023,-3.24191 -29.41766,-3.66534 -25.82632,-0.9705 -61.43951,2.06073 -107.55377,0.87729 m 147.85429,-55.97939 c 0,16.32428 0,23.94228 -10.88286,34.82514 -4.8139,4.81391 -15.59115,16.78775 -29.45425,19.04463 -31.19334,5.07819 -78.01017,0.68623 -107.66978,1.63281 l 1.08828,-62.0323 -0.93266,118.62317"
       id="path3116-2"
       style="fill:none;stroke:#2b0000;stroke-width:13.60357475;stroke-linecap:square;stroke-linejoin:miter;stroke-miterlimit:4;stroke-opacity:1;stroke-dasharray:none;marker-start:none" />
    <path
       d="m 471.1476,624.63985 c -44.53615,0 -69.27844,0 -108.86613,0 -29.69076,0 -29.69076,58.91054 11.81532,58.74834 l 62.41159,-0.24388 c 57.01794,-0.22282 48.5128,51.75086 19.79384,53.18583 -6.76626,1.06695 -77.92876,0 -108.86614,0"
       id="path3266"
       style="fill:none;stroke:#2b0000;stroke-width:13.60357475;stroke-linecap:square;stroke-linejoin:miter;stroke-miterlimit:4;stroke-opacity:1;stroke-dasharray:none;marker-start:none" />
  </g>
</svg>
